<svg width="24" height="24" viewBox="0 0 24 24" fill="none" xmlns="http://www.w3.org/2000/svg">
<path d="M20.3857 18.6404V10.1697C20.745 10.1566 21.0904 10.0277 21.3703 9.80212C21.6502 9.57657 21.8497 9.26653 21.9389 8.91829C22.0387 8.56303 22.0157 8.1845 21.8738 7.84388C21.7319 7.50326 21.4792 7.22044 21.1567 7.04113L12.8324 2.2365C12.5782 2.09369 12.2916 2.01868 12 2.01868C11.7084 2.01868 11.4218 2.09369 11.1676 2.2365L2.84326 7.04113C2.52074 7.22044 2.2681 7.50326 2.12618 7.84388C1.98425 8.1845 1.96132 8.56303 2.06111 8.91829C2.15267 9.27783 2.36193 9.59638 2.65556 9.82318C2.94918 10.05 3.31026 10.172 3.68127 10.1697H3.82653V18.6281H3.69245C3.24793 18.6281 2.82163 18.8047 2.50731 19.119C2.19299 19.4333 2.01641 19.8596 2.01641 20.3042C2.01641 20.7487 2.19299 21.175 2.50731 21.4893C2.82163 21.8036 3.24793 21.9802 3.69245 21.9802H20.3075C20.7274 21.9554 21.1227 21.7736 21.4147 21.4709C21.7068 21.1683 21.8744 20.7668 21.8843 20.3463C21.8941 19.9258 21.7455 19.517 21.4679 19.2009C21.1903 18.8849 20.804 18.6848 20.3857 18.6404ZM3.68127 9.05238C3.55812 9.0508 3.43887 9.00898 3.34171 8.93329C3.24455 8.85761 3.17482 8.75221 3.14317 8.63319C3.11151 8.51416 3.11967 8.38805 3.16639 8.2741C3.21311 8.16014 3.29583 8.0646 3.40193 8.00206L11.7262 3.20972C11.8088 3.15985 11.9035 3.13348 12 3.13348C12.0965 3.13348 12.1911 3.15985 12.2737 3.20972L20.6036 8.00206C20.7142 8.06165 20.8015 8.15676 20.8514 8.27205C20.9012 8.38734 20.9108 8.51608 20.8785 8.63747C20.8462 8.75887 20.774 8.86584 20.6734 8.94112C20.5729 9.0164 20.4499 9.0556 20.3243 9.05238H3.68127ZM19.2684 10.1697V18.6281H15.2403V10.1697H19.2684ZM14.1174 10.1697V18.6281H10.0837V10.1697H14.1174ZM8.96637 10.1697V18.6281H4.94388V10.1697H8.96637ZM20.3075 20.8628H3.69245C3.54428 20.8628 3.40217 20.804 3.2974 20.6992C3.19263 20.5944 3.13377 20.4523 3.13377 20.3042C3.13377 20.156 3.19263 20.0139 3.2974 19.9091C3.40217 19.8043 3.54428 19.7455 3.69245 19.7455H20.3075C20.4557 19.7455 20.5978 19.8043 20.7026 19.9091C20.8074 20.0139 20.8662 20.156 20.8662 20.3042C20.8662 20.4523 20.8074 20.5944 20.7026 20.6992C20.5978 20.804 20.4557 20.8628 20.3075 20.8628Z" fill="black"/>
</svg>
