<svg width="21" height="20" viewBox="0 0 21 20" fill="none" xmlns="http://www.w3.org/2000/svg">
<path d="M2.16675 9.99992C2.16675 6.85722 2.16675 5.28588 3.14306 4.30956C4.11937 3.33325 5.69071 3.33325 8.83341 3.33325H12.1667C15.3094 3.33325 16.8808 3.33325 17.8571 4.30956C18.8334 5.28588 18.8334 6.85722 18.8334 9.99992V11.6666C18.8334 14.8093 18.8334 16.3807 17.8571 17.3569C16.8808 18.3333 15.3094 18.3333 12.1667 18.3333H8.83341C5.69071 18.3333 4.11937 18.3333 3.14306 17.3569C2.16675 16.3807 2.16675 14.8093 2.16675 11.6666V9.99992Z" stroke="#8A8E9E" stroke-width="1.5"/>
<path d="M6.33325 3.33325V2.08325" stroke="#8A8E9E" stroke-width="1.5" stroke-linecap="round"/>
<path d="M14.6667 3.33325V2.08325" stroke="#8A8E9E" stroke-width="1.5" stroke-linecap="round"/>
<path d="M2.58325 7.5H18.4166" stroke="#8A8E9E" stroke-width="1.5" stroke-linecap="round"/>
<path d="M15.4999 14.1666C15.4999 14.6268 15.1268 14.9999 14.6666 14.9999C14.2063 14.9999 13.8333 14.6268 13.8333 14.1666C13.8333 13.7063 14.2063 13.3333 14.6666 13.3333C15.1268 13.3333 15.4999 13.7063 15.4999 14.1666Z" fill="#8A8E9E"/>
<path d="M15.4999 10.8333C15.4999 11.2936 15.1268 11.6667 14.6666 11.6667C14.2063 11.6667 13.8333 11.2936 13.8333 10.8333C13.8333 10.3731 14.2063 10 14.6666 10C15.1268 10 15.4999 10.3731 15.4999 10.8333Z" fill="#8A8E9E"/>
<path d="M11.3334 14.1666C11.3334 14.6268 10.9603 14.9999 10.5001 14.9999C10.0398 14.9999 9.66675 14.6268 9.66675 14.1666C9.66675 13.7063 10.0398 13.3333 10.5001 13.3333C10.9603 13.3333 11.3334 13.7063 11.3334 14.1666Z" fill="#8A8E9E"/>
<path d="M11.3334 10.8333C11.3334 11.2936 10.9603 11.6667 10.5001 11.6667C10.0398 11.6667 9.66675 11.2936 9.66675 10.8333C9.66675 10.3731 10.0398 10 10.5001 10C10.9603 10 11.3334 10.3731 11.3334 10.8333Z" fill="#8A8E9E"/>
<path d="M7.16667 14.1666C7.16667 14.6268 6.79357 14.9999 6.33333 14.9999C5.8731 14.9999 5.5 14.6268 5.5 14.1666C5.5 13.7063 5.8731 13.3333 6.33333 13.3333C6.79357 13.3333 7.16667 13.7063 7.16667 14.1666Z" fill="#8A8E9E"/>
<path d="M7.16667 10.8333C7.16667 11.2936 6.79357 11.6667 6.33333 11.6667C5.8731 11.6667 5.5 11.2936 5.5 10.8333C5.5 10.3731 5.8731 10 6.33333 10C6.79357 10 7.16667 10.3731 7.16667 10.8333Z" fill="#8A8E9E"/>
</svg>
