<svg width="20" height="20" viewBox="0 0 20 20" fill="none" xmlns="http://www.w3.org/2000/svg">
<circle cx="10" cy="10" r="10" fill="#6BC962"/>
<path d="M10.4392 6.62784C10.7635 6.63021 11.0831 6.68939 11.398 6.8054C11.7129 6.9214 11.997 7.1108 12.2503 7.37358C12.5059 7.63636 12.7095 7.99148 12.8611 8.43892C13.0149 8.884 13.0931 9.43797 13.0954 10.1009C13.0954 10.7377 13.0315 11.3047 12.9037 11.8018C12.7758 12.2966 12.5924 12.7145 12.3532 13.0554C12.1165 13.3963 11.8289 13.6555 11.4903 13.8331C11.1518 14.0107 10.7706 14.0994 10.3469 14.0994C9.91362 14.0994 9.52891 14.0142 9.19274 13.8438C8.85656 13.6733 8.58313 13.4377 8.37243 13.1371C8.16172 12.834 8.03033 12.486 7.97825 12.093H9.06135C9.13237 12.4055 9.27678 12.6589 9.49458 12.853C9.71476 13.0447 9.99885 13.1406 10.3469 13.1406C10.8795 13.1406 11.295 12.9086 11.5933 12.4446C11.8916 11.9782 12.0419 11.3272 12.0443 10.4915H11.9875C11.8644 10.6951 11.7105 10.8703 11.5258 11.017C11.3435 11.1638 11.1388 11.2775 10.9115 11.358C10.6842 11.4384 10.4416 11.4787 10.1835 11.4787C9.76447 11.4787 9.38332 11.3757 9.04004 11.1697C8.69676 10.9638 8.42333 10.6809 8.21973 10.321C8.01613 9.96117 7.91433 9.55043 7.91433 9.08878C7.91433 8.6295 8.0185 8.21283 8.22683 7.83878C8.43753 7.46473 8.73109 7.1688 9.10751 6.95099C9.4863 6.73082 9.93019 6.62311 10.4392 6.62784ZM10.4427 7.55114C10.1657 7.55114 9.91599 7.61979 9.69345 7.7571C9.47328 7.89205 9.29927 8.07552 9.17143 8.30753C9.04359 8.53717 8.97967 8.79285 8.97967 9.07457C8.97967 9.3563 9.04122 9.61198 9.16433 9.84162C9.2898 10.0689 9.46026 10.25 9.67569 10.3849C9.8935 10.5175 10.1421 10.5838 10.4214 10.5838C10.6298 10.5838 10.8239 10.5436 11.0038 10.4631C11.1837 10.3826 11.3412 10.2713 11.4761 10.1293C11.6111 9.98485 11.7164 9.8215 11.7922 9.6392C11.8679 9.45691 11.9058 9.26515 11.9058 9.06392C11.9058 8.7964 11.8419 8.54782 11.714 8.31818C11.5886 8.08854 11.4157 7.90388 11.1956 7.7642C10.9754 7.62216 10.7245 7.55114 10.4427 7.55114Z" fill="white"/>
</svg>
