<svg width="20" height="20" viewBox="0 0 20 20" fill="none" xmlns="http://www.w3.org/2000/svg">
<path d="M4.27428 4.41246C4.16669 4.5641 4.16669 4.77885 4.16669 5.20835C4.16669 5.63786 4.16669 5.85261 4.27428 6.00425C4.31225 6.05775 4.35896 6.10447 4.41246 6.14243C4.5641 6.25002 4.77885 6.25002 5.20835 6.25002C5.63786 6.25002 5.85261 6.25002 6.00425 6.14243C6.05775 6.10447 6.10447 6.05775 6.14243 6.00425C6.25002 5.85261 6.25002 5.63786 6.25002 5.20835C6.25002 4.77885 6.25002 4.5641 6.14243 4.41246C6.10447 4.35896 6.05775 4.31225 6.00425 4.27428C5.85261 4.16669 5.63786 4.16669 5.20835 4.16669C4.77885 4.16669 4.5641 4.16669 4.41246 4.27428C4.35896 4.31225 4.31225 4.35896 4.27428 4.41246Z" fill="white"/>
<path fill-rule="evenodd" clip-rule="evenodd" d="M7.25348 1.0752C7.62211 1.11025 7.96565 1.1863 8.28074 1.37939C8.5891 1.56835 8.84835 1.8276 9.03735 2.13596C9.23044 2.45106 9.30644 2.7946 9.34152 3.16323C9.37502 3.51585 9.37502 3.94998 9.37502 4.4702V5.46002C9.37502 6.20874 9.3751 6.83311 9.30844 7.32875C9.2381 7.85192 9.08335 8.32425 8.70377 8.70377C8.32425 9.08335 7.85192 9.2381 7.32875 9.30844C6.83311 9.3751 6.20877 9.37502 5.46004 9.37502H4.47027C3.95005 9.37502 3.51585 9.37502 3.16323 9.34152C2.7946 9.30644 2.45106 9.23044 2.13596 9.03735C1.8276 8.84835 1.56835 8.5891 1.37939 8.28074C1.1863 7.96565 1.11025 7.62211 1.0752 7.25348C1.04166 6.90085 1.04168 6.46669 1.04169 5.94644V5.88531C1.04168 5.0936 1.04167 4.45507 1.09055 3.94108C1.14095 3.411 1.2477 2.94917 1.50219 2.53388C1.75986 2.1134 2.1134 1.75986 2.53388 1.50219C2.94917 1.2477 3.411 1.14095 3.94108 1.09055C4.45508 1.04167 5.09358 1.04168 5.88529 1.04169H5.94643C6.46668 1.04168 6.90085 1.04166 7.25348 1.0752ZM7.13516 2.31958C6.84873 2.29235 6.47436 2.29169 5.91669 2.29169C5.08623 2.29169 4.50727 2.29235 4.0594 2.33493C3.62082 2.37663 3.37289 2.45408 3.187 2.56799C2.93471 2.7226 2.7226 2.93471 2.56799 3.187C2.45408 3.37289 2.37663 3.62082 2.33493 4.0594C2.29235 4.50727 2.29169 5.08623 2.29169 5.91669C2.29169 6.47436 2.29235 6.84873 2.31958 7.13516C2.34593 7.41229 2.39268 7.54194 2.44519 7.62762C2.53108 7.76779 2.64892 7.88563 2.78909 7.97152C2.87477 8.02403 3.00441 8.07078 3.28155 8.09713C3.56798 8.12436 3.94235 8.12502 4.50002 8.12502H5.41669C6.22003 8.12502 6.75966 8.12369 7.16219 8.06958C7.54674 8.01787 7.71133 7.92852 7.81993 7.81993C7.92852 7.71133 8.01787 7.54674 8.06958 7.16219C8.12369 6.75966 8.12502 6.22003 8.12502 5.41669V4.50002C8.12502 3.94235 8.12436 3.56798 8.09713 3.28155C8.07078 3.00441 8.02403 2.87477 7.97152 2.78909C7.88563 2.64892 7.76779 2.53108 7.62762 2.44519C7.54194 2.39268 7.41229 2.34593 7.13516 2.31958Z" fill="white"/>
<path d="M13.8576 4.41246C13.75 4.5641 13.75 4.77885 13.75 5.20835C13.75 5.63786 13.75 5.85261 13.8576 6.00425C13.8956 6.05775 13.9423 6.10447 13.9958 6.14243C14.1474 6.25002 14.3622 6.25002 14.7917 6.25002C15.2212 6.25002 15.4359 6.25002 15.5876 6.14243C15.6411 6.10447 15.6877 6.05775 15.7257 6.00425C15.8333 5.85261 15.8333 5.63786 15.8333 5.20835C15.8333 4.77885 15.8333 4.5641 15.7257 4.41246C15.6877 4.35896 15.6411 4.31225 15.5876 4.27428C15.4359 4.16669 15.2212 4.16669 14.7917 4.16669C14.3622 4.16669 14.1474 4.16669 13.9958 4.27428C13.9423 4.31225 13.8956 4.35896 13.8576 4.41246Z" fill="white"/>
<path fill-rule="evenodd" clip-rule="evenodd" d="M14.0536 1.04169H14.1147C14.9064 1.04168 15.5449 1.04167 16.0589 1.09055C16.589 1.14095 17.0508 1.2477 17.4662 1.50219C17.8867 1.75986 18.2402 2.1134 18.4978 2.53388C18.7523 2.94917 18.8591 3.411 18.9095 3.94108C18.9583 4.45508 18.9583 5.09358 18.9583 5.8853V5.94644C18.9583 6.46669 18.9583 6.90085 18.9248 7.25348C18.8897 7.62211 18.8137 7.96565 18.6207 8.28074C18.4317 8.5891 18.1724 8.84835 17.8641 9.03735C17.549 9.23044 17.2054 9.30644 16.8368 9.34152C16.4842 9.37502 16.0501 9.37502 15.5299 9.37502H14.54C13.7912 9.37502 13.1669 9.3751 12.6712 9.30844C12.1481 9.2381 11.6757 9.08335 11.2962 8.70377C10.9167 8.32425 10.7619 7.85192 10.6916 7.32875C10.6249 6.8331 10.625 6.20875 10.625 5.46002V4.47028C10.625 3.95003 10.625 3.51586 10.6585 3.16323C10.6936 2.7946 10.7696 2.45106 10.9627 2.13596C11.1517 1.8276 11.4109 1.56835 11.7192 1.37939C12.0343 1.1863 12.3779 1.11025 12.7466 1.0752C13.0992 1.04166 13.5333 1.04168 14.0536 1.04169ZM12.8648 2.31958C12.5877 2.34593 12.4581 2.39268 12.3724 2.44519C12.2322 2.53108 12.1144 2.64892 12.0285 2.78909C11.976 2.87477 11.9292 3.00441 11.9029 3.28155C11.8757 3.56798 11.875 3.94235 11.875 4.50002V5.41669C11.875 6.22003 11.8763 6.75966 11.9304 7.16219C11.9822 7.54674 12.0715 7.71133 12.1801 7.81993C12.2887 7.92852 12.4532 8.01787 12.8378 8.06958C13.2403 8.12369 13.78 8.12502 14.5833 8.12502H15.5C16.0577 8.12502 16.432 8.12436 16.7185 8.09713C16.9956 8.07078 17.1252 8.02403 17.2109 7.97152C17.3511 7.88563 17.4689 7.76779 17.5548 7.62762C17.6073 7.54194 17.6541 7.41229 17.6804 7.13516C17.7077 6.84873 17.7083 6.47436 17.7083 5.91669C17.7083 5.08623 17.7077 4.50727 17.6651 4.0594C17.6234 3.62082 17.5459 3.37289 17.432 3.187C17.2774 2.93471 17.0653 2.7226 16.813 2.56799C16.6272 2.45408 16.3792 2.37663 15.9407 2.33493C15.4927 2.29235 14.9138 2.29169 14.0833 2.29169C13.5257 2.29169 13.1513 2.29235 12.8648 2.31958Z" fill="white"/>
<path d="M4.16669 14.7917C4.16669 14.3622 4.16669 14.1474 4.27428 13.9958C4.31225 13.9423 4.35896 13.8956 4.41246 13.8576C4.5641 13.75 4.77885 13.75 5.20835 13.75C5.63786 13.75 5.85261 13.75 6.00425 13.8576C6.05775 13.8956 6.10447 13.9423 6.14243 13.9958C6.25002 14.1474 6.25002 14.3622 6.25002 14.7917C6.25002 15.2212 6.25002 15.4359 6.14243 15.5876C6.10447 15.6411 6.05775 15.6877 6.00425 15.7257C5.85261 15.8333 5.63786 15.8333 5.20835 15.8333C4.77885 15.8333 4.5641 15.8333 4.41246 15.7257C4.35896 15.6877 4.31225 15.6411 4.27428 15.5876C4.16669 15.4359 4.16669 15.2212 4.16669 14.7917Z" fill="white"/>
<path fill-rule="evenodd" clip-rule="evenodd" d="M7.32875 10.6916C7.85192 10.7619 8.32425 10.9167 8.70377 11.2962C9.08335 11.6757 9.2381 12.1481 9.30844 12.6712C9.3751 13.1669 9.37502 13.7912 9.37502 14.54V15.5297C9.37502 16.0499 9.37502 16.4842 9.34152 16.8368C9.30644 17.2054 9.23044 17.549 9.03735 17.8641C8.84835 18.1724 8.5891 18.4317 8.28074 18.6207C7.96565 18.8137 7.62211 18.8897 7.25348 18.9248C6.90085 18.9583 6.46669 18.9583 5.94644 18.9583H5.8853C5.09358 18.9583 4.45508 18.9583 3.94108 18.9095C3.411 18.8591 2.94917 18.7523 2.53388 18.4978C2.1134 18.2402 1.75986 17.8867 1.50219 17.4662C1.2477 17.0508 1.14095 16.589 1.09055 16.0589C1.04167 15.5449 1.04168 14.9064 1.04169 14.1147V14.0536C1.04168 13.5333 1.04166 13.0992 1.0752 12.7466C1.11025 12.3779 1.1863 12.0343 1.37939 11.7192C1.56835 11.4109 1.8276 11.1517 2.13596 10.9627C2.45106 10.7696 2.7946 10.6936 3.16323 10.6585C3.51586 10.625 3.95003 10.625 4.47028 10.625H5.46002C6.20875 10.625 6.8331 10.6249 7.32875 10.6916ZM7.16219 11.9304C6.75966 11.8763 6.22003 11.875 5.41669 11.875H4.50002C3.94235 11.875 3.56798 11.8757 3.28155 11.9029C3.00441 11.9292 2.87477 11.976 2.78909 12.0285C2.64892 12.1144 2.53108 12.2322 2.44519 12.3724C2.39268 12.4581 2.34593 12.5877 2.31958 12.8648C2.29235 13.1513 2.29169 13.5257 2.29169 14.0833C2.29169 14.9138 2.29235 15.4927 2.33493 15.9407C2.37663 16.3792 2.45408 16.6272 2.56799 16.813C2.7226 17.0653 2.93471 17.2774 3.187 17.432C3.37289 17.5459 3.62082 17.6234 4.0594 17.6651C4.50727 17.7077 5.08623 17.7083 5.91669 17.7083C6.47436 17.7083 6.84873 17.7077 7.13516 17.6804C7.41229 17.6541 7.54194 17.6073 7.62762 17.5548C7.76779 17.4689 7.88563 17.3511 7.97152 17.2109C8.02403 17.1252 8.07078 16.9956 8.09713 16.7185C8.12436 16.432 8.12502 16.0577 8.12502 15.5V14.5833C8.12502 13.78 8.12369 13.2403 8.06958 12.8378C8.01787 12.4532 7.92852 12.2887 7.81993 12.1801C7.71133 12.0715 7.54674 11.9822 7.16219 11.9304Z" fill="white"/>
<path d="M14.1348 10.625H15.8333V11.875H14.1667C13.5685 11.875 13.1668 11.8757 12.8607 11.9069C12.565 11.937 12.4283 11.9902 12.3379 12.0506C12.2243 12.1266 12.1266 12.2242 12.0506 12.3379C11.9902 12.4283 11.937 12.565 11.9069 12.8607C11.8757 13.1668 11.875 13.5685 11.875 14.1667H10.625V14.1348C10.625 13.5768 10.625 13.1111 10.6633 12.7342C10.7035 12.3396 10.7908 11.9735 11.0113 11.6435C11.1784 11.3933 11.3933 11.1784 11.6435 11.0112C11.9735 10.7907 12.3396 10.7035 12.7342 10.6633C13.1111 10.625 13.5768 10.625 14.1348 10.625Z" fill="white"/>
<path d="M10.625 18.3333V15.8333H11.875V18.3333C11.875 18.6785 11.5952 18.9583 11.25 18.9583C10.9048 18.9583 10.625 18.6785 10.625 18.3333Z" fill="white"/>
<path d="M18.9583 11.25C18.9583 10.9048 18.6785 10.625 18.3333 10.625C17.9881 10.625 17.7083 10.9048 17.7083 11.25V14.1667H18.9583V11.25Z" fill="white"/>
<path d="M17.7084 15.8333C17.7084 16.2301 17.708 16.4965 17.6939 16.7027C17.6803 16.9033 17.6557 17.001 17.6291 17.0653C17.5234 17.3205 17.3205 17.5233 17.0654 17.6291C17.001 17.6556 16.9034 17.6802 16.7028 17.6939C16.4965 17.708 16.2302 17.7083 15.8334 17.7083H14.1667V18.9583H15.8544C16.2248 18.9583 16.534 18.9583 16.7879 18.941C17.0521 18.923 17.3017 18.8841 17.5437 18.7839C18.1052 18.5513 18.5514 18.1051 18.7839 17.5436C18.8842 17.3016 18.923 17.0521 18.941 16.7878C18.9584 16.534 18.9584 16.2248 18.9584 15.8544V15.8333H17.7084Z" fill="white"/>
<path d="M13.4737 13.7036C13.3333 13.9139 13.3333 14.2065 13.3333 14.7916C13.3333 15.3768 13.3333 15.6694 13.4737 15.8796C13.5346 15.9706 13.6126 16.0487 13.7036 16.1096C13.9139 16.25 14.2065 16.25 14.7916 16.25C15.3768 16.25 15.6694 16.25 15.8796 16.1096C15.9706 16.0487 16.0487 15.9706 16.1096 15.8796C16.25 15.6694 16.25 15.3768 16.25 14.7916C16.25 14.2065 16.25 13.9139 16.1096 13.7036C16.0487 13.6126 15.9706 13.5346 15.8796 13.4737C15.6694 13.3333 15.3768 13.3333 14.7916 13.3333C14.2065 13.3333 13.9139 13.3333 13.7036 13.4737C13.6126 13.5346 13.5346 13.6126 13.4737 13.7036Z" fill="white"/>
</svg>
