<svg width="24" height="24" viewBox="0 0 24 24" fill="none" xmlns="http://www.w3.org/2000/svg">
<path fill-rule="evenodd" clip-rule="evenodd" d="M18.1535 19.4571C18.8616 19.4571 19.4356 18.8815 19.4356 18.1714V16.1143C19.4356 15.6882 19.78 15.3429 20.2048 15.3429C20.6297 15.3429 20.9741 15.6882 20.9741 16.1143V18.1714C20.9741 19.7336 19.7113 21 18.1535 21H16.1023C15.6774 21 15.333 20.6546 15.333 20.2286C15.333 19.8025 15.6774 19.4571 16.1023 19.4571H18.1535Z" fill="white"/>
<path fill-rule="evenodd" clip-rule="evenodd" d="M18.1535 4.54286C18.8616 4.54286 19.4356 5.11849 19.4356 5.82857V7.88571C19.4356 8.31176 19.78 8.65714 20.2048 8.65714C20.6297 8.65714 20.9741 8.31176 20.9741 7.88571V5.82857C20.9741 4.26639 19.7113 3 18.1535 3H16.1023C15.6774 3 15.333 3.34538 15.333 3.77143C15.333 4.19748 15.6774 4.54286 16.1023 4.54286H18.1535Z" fill="white"/>
<path fill-rule="evenodd" clip-rule="evenodd" d="M5.8459 19.4571C5.13785 19.4571 4.56385 18.8815 4.56385 18.1714V16.1143C4.56385 15.6882 4.21946 15.3429 3.79462 15.3429C3.36979 15.3429 3.02539 15.6882 3.02539 16.1143V18.1714C3.02539 19.7336 4.28818 21 5.8459 21H7.89719C8.32202 21 8.66642 20.6546 8.66642 20.2286C8.66642 19.8025 8.32202 19.4571 7.89719 19.4571H5.8459Z" fill="white"/>
<path fill-rule="evenodd" clip-rule="evenodd" d="M5.8459 4.54286C5.13785 4.54286 4.56385 5.11849 4.56385 5.82857V7.88572C4.56385 8.31176 4.21946 8.65714 3.79462 8.65714C3.36979 8.65714 3.02539 8.31176 3.02539 7.88572V5.82857C3.02539 4.2664 4.28818 3 5.8459 3H7.89719C8.32202 3 8.66642 3.34538 8.66642 3.77143C8.66642 4.19748 8.32202 4.54286 7.89719 4.54286H5.8459Z" fill="white"/>
<path fill-rule="evenodd" clip-rule="evenodd" d="M22 12C22 12.426 21.6556 12.7714 21.2308 12.7714H2.76923C2.3444 12.7714 2 12.426 2 12C2 11.574 2.3444 11.2286 2.76923 11.2286H21.2308C21.6556 11.2286 22 11.574 22 12Z" fill="white"/>
</svg>
