<svg width="24" height="24" viewBox="0 0 24 24" fill="none" xmlns="http://www.w3.org/2000/svg">
<path d="M6.736 18.128C5.872 18.128 5.07733 17.9893 4.352 17.712C3.62667 17.424 2.99733 17.024 2.464 16.512C1.93067 15.9893 1.51467 15.3813 1.216 14.688C0.917333 13.9947 0.768 13.232 0.768 12.4C0.768 11.568 0.917333 10.8053 1.216 10.112C1.51467 9.41867 1.93067 8.816 2.464 8.304C3.008 7.78133 3.64267 7.38133 4.368 7.104C5.09333 6.816 5.89333 6.672 6.768 6.672C7.65333 6.672 8.464 6.816 9.2 7.104C9.936 7.392 10.56 7.824 11.072 8.4L10.08 9.392C9.62133 8.944 9.12 8.61867 8.576 8.416C8.04267 8.20267 7.46133 8.096 6.832 8.096C6.192 8.096 5.59467 8.20267 5.04 8.416C4.496 8.62933 4.02133 8.928 3.616 9.312C3.22133 9.696 2.912 10.1547 2.688 10.688C2.47467 11.2107 2.368 11.7813 2.368 12.4C2.368 13.008 2.47467 13.5787 2.688 14.112C2.912 14.6347 3.22133 15.0933 3.616 15.488C4.02133 15.872 4.496 16.1707 5.04 16.384C5.584 16.5973 6.176 16.704 6.816 16.704C7.41333 16.704 7.984 16.6133 8.528 16.432C9.08267 16.24 9.59467 15.9253 10.064 15.488L10.976 16.704C10.4213 17.1733 9.77067 17.5307 9.024 17.776C8.288 18.0107 7.52533 18.128 6.736 18.128ZM9.44 16.496V12.336H10.976V16.704L9.44 16.496ZM17.3034 18.128C16.45 18.128 15.634 18 14.8554 17.744C14.0767 17.4773 13.4634 17.136 13.0154 16.72L13.6074 15.472C14.034 15.8453 14.578 16.1547 15.2394 16.4C15.9007 16.6453 16.5887 16.768 17.3034 16.768C17.954 16.768 18.482 16.6933 18.8874 16.544C19.2927 16.3947 19.5914 16.192 19.7834 15.936C19.9754 15.6693 20.0714 15.3707 20.0714 15.04C20.0714 14.656 19.9434 14.3467 19.6874 14.112C19.442 13.8773 19.1167 13.6907 18.7114 13.552C18.3167 13.4027 17.8794 13.2747 17.3994 13.168C16.9194 13.0613 16.434 12.9387 15.9434 12.8C15.4634 12.6507 15.0207 12.464 14.6154 12.24C14.2207 12.016 13.9007 11.7173 13.6554 11.344C13.41 10.96 13.2874 10.4693 13.2874 9.872C13.2874 9.296 13.4367 8.768 13.7354 8.288C14.0447 7.79733 14.514 7.408 15.1434 7.12C15.7834 6.82133 16.594 6.672 17.5754 6.672C18.226 6.672 18.8714 6.75733 19.5114 6.928C20.1514 7.09867 20.706 7.344 21.1754 7.664L20.6474 8.944C20.1674 8.624 19.6607 8.39467 19.1274 8.256C18.594 8.10667 18.0767 8.032 17.5754 8.032C16.946 8.032 16.4287 8.112 16.0234 8.272C15.618 8.432 15.3194 8.64533 15.1274 8.912C14.946 9.17867 14.8554 9.47733 14.8554 9.808C14.8554 10.2027 14.978 10.5173 15.2234 10.752C15.4794 10.9867 15.8047 11.1733 16.1994 11.312C16.6047 11.4507 17.0474 11.5787 17.5274 11.696C18.0074 11.8027 18.4874 11.9253 18.9674 12.064C19.458 12.2027 19.9007 12.384 20.2954 12.608C20.7007 12.832 21.026 13.1307 21.2714 13.504C21.5167 13.8773 21.6394 14.3573 21.6394 14.944C21.6394 15.5093 21.4847 16.0373 21.1754 16.528C20.866 17.008 20.386 17.3973 19.7354 17.696C19.0954 17.984 18.2847 18.128 17.3034 18.128Z" fill="#0D0D0D"/>
</svg>
