<svg width="28" height="22" viewBox="0 0 28 22" fill="none" xmlns="http://www.w3.org/2000/svg">
<path fill-rule="evenodd" clip-rule="evenodd" d="M11.4295 0.0625006H16.5705C18.8678 0.0624756 20.6872 0.0624631 22.1112 0.253926C23.5767 0.450951 24.763 0.866101 25.6985 1.80155C26.6339 2.73701 27.049 3.9232 27.2461 5.38873C27.3591 6.22981 27.4055 7.20888 27.4244 8.34285C27.433 8.39395 27.4375 8.44645 27.4375 8.5C27.4375 8.54413 27.4345 8.58737 27.4286 8.62988C27.4375 9.337 27.4375 10.1022 27.4375 10.9295V11.0705C27.4375 13.3678 27.4375 15.1873 27.2461 16.6112C27.049 18.0768 26.6339 19.263 25.6985 20.1985C24.763 21.1339 23.5767 21.549 22.1112 21.7461C20.6872 21.9375 18.8678 21.9375 16.5705 21.9375H11.4295C9.13229 21.9375 7.31274 21.9375 5.88873 21.7461C4.4232 21.549 3.23701 21.1339 2.30155 20.1985C1.3661 19.263 0.950951 18.0768 0.753926 16.6112C0.562463 15.1873 0.562476 13.3678 0.562501 11.0705V10.9295C0.562488 10.1022 0.562488 9.337 0.571426 8.62988C0.565538 8.58737 0.562501 8.544 0.562501 8.5C0.562501 8.44645 0.566988 8.39396 0.575613 8.34286C0.594551 7.20889 0.640838 6.22981 0.753926 5.38873C0.950951 3.9232 1.3661 2.73701 2.30155 1.80155C3.23701 0.866101 4.4232 0.450951 5.88873 0.253926C7.31274 0.0624631 9.13227 0.0624756 11.4295 0.0625006ZM2.43999 9.4375C2.43761 9.923 2.4375 10.4426 2.4375 11C2.4375 13.3835 2.43949 15.0769 2.6122 16.3615C2.78128 17.619 3.09836 18.3436 3.62738 18.8726C4.15639 19.4016 4.88095 19.7188 6.13856 19.8878C7.42314 20.0605 9.11648 20.0625 11.5 20.0625H16.5C18.8835 20.0625 20.5769 20.0605 21.8615 19.8878C23.119 19.7188 23.8436 19.4016 24.3726 18.8726C24.9016 18.3436 25.2187 17.619 25.3877 16.3615C25.5605 15.0769 25.5625 13.3835 25.5625 11C25.5625 10.4426 25.5624 9.923 25.56 9.4375H2.43999ZM25.5299 7.5625H2.47009C2.49455 6.82909 2.53734 6.19543 2.6122 5.63856C2.78128 4.38095 3.09836 3.65639 3.62738 3.12738C4.15639 2.59836 4.88095 2.28128 6.13856 2.1122C7.42314 1.93949 9.11648 1.9375 11.5 1.9375H16.5C18.8835 1.9375 20.5769 1.93949 21.8615 2.1122C23.119 2.28128 23.8436 2.59836 24.3726 3.12738C24.9016 3.65639 25.2187 4.38095 25.3877 5.63856C25.4626 6.19543 25.5055 6.82909 25.5299 7.5625ZM5.5625 16C5.5625 15.4822 5.98224 15.0625 6.5 15.0625H11.5C12.0177 15.0625 12.4375 15.4822 12.4375 16C12.4375 16.5177 12.0177 16.9375 11.5 16.9375H6.5C5.98224 16.9375 5.5625 16.5177 5.5625 16ZM13.6875 16C13.6875 15.4822 14.1072 15.0625 14.625 15.0625H16.5C17.0177 15.0625 17.4375 15.4822 17.4375 16C17.4375 16.5177 17.0177 16.9375 16.5 16.9375H14.625C14.1072 16.9375 13.6875 16.5177 13.6875 16Z" fill="white"/>
</svg>
