<svg width="24" height="24" viewBox="0 0 24 24" fill="none" xmlns="http://www.w3.org/2000/svg">
<path d="M14.7499 11.0833C15.2562 11.0833 15.6666 10.6729 15.6666 10.1667C15.6666 9.6604 15.2562 9.25 14.7499 9.25C14.2436 9.25 13.8333 9.6604 13.8333 10.1667C13.8333 10.6729 14.2436 11.0833 14.7499 11.0833Z" fill="white"/>
<path d="M10.1666 10.1667C10.1666 10.6729 9.75618 11.0833 9.24992 11.0833C8.74365 11.0833 8.33325 10.6729 8.33325 10.1667C8.33325 9.6604 8.74365 9.25 9.24992 9.25C9.75618 9.25 10.1666 9.6604 10.1666 10.1667Z" fill="white"/>
<path fill-rule="evenodd" clip-rule="evenodd" d="M8.56246 5.83603V5.58333C8.56246 3.68485 10.1015 2.14583 12 2.14583C13.8985 2.14583 15.4375 3.68485 15.4375 5.58333V5.83603C16.041 5.85471 16.5784 5.88822 17.0553 5.94833C18.1565 6.08714 19.0478 6.37918 19.7363 7.05164C19.9661 7.27601 20.1703 7.5251 20.3452 7.79437C20.8696 8.60143 20.9812 9.53271 20.9013 10.6397C20.8232 11.7231 20.5512 13.0833 20.206 14.8094L20.1884 14.897C19.9488 16.095 19.7582 17.0484 19.5222 17.7985C19.2792 18.5709 18.9689 19.1956 18.4497 19.7016C18.2712 19.8755 18.078 20.0339 17.8724 20.1748C17.2745 20.5847 16.6011 20.7664 15.796 20.8533C15.0142 20.9375 14.0419 20.9375 12.8202 20.9375H11.1798C9.95807 20.9375 8.98578 20.9375 8.20408 20.8533C7.39891 20.7664 6.72559 20.5847 6.12765 20.1748C5.922 20.0339 5.72883 19.8755 5.55028 19.7016C5.03115 19.1956 4.72084 18.5709 4.47784 17.7985C4.24191 17.0484 4.05124 16.095 3.81164 14.897L3.79416 14.8096C3.44891 13.0834 3.17684 11.7232 3.0987 10.6397C3.01886 9.53271 3.13043 8.60143 3.6548 7.79437C3.82975 7.5251 4.03396 7.27601 4.2637 7.05164C4.95223 6.37918 5.84355 6.08714 6.94471 5.94833C7.42153 5.88822 7.95894 5.85471 8.56246 5.83603ZM9.93746 5.58333C9.93746 4.44424 10.8609 3.52083 12 3.52083C13.139 3.52083 14.0625 4.44424 14.0625 5.58333V5.81451C13.6736 5.81249 13.2631 5.81249 12.83 5.81249H11.17C10.7369 5.81249 10.3264 5.81249 9.93746 5.81451V5.58333ZM5.22441 8.03533C5.60431 7.6643 6.14838 7.43459 7.11667 7.31254C8.09833 7.18879 9.39873 7.18749 11.2195 7.18749H12.7805C14.6013 7.18749 15.9017 7.18879 16.8833 7.31254C17.8517 7.43459 18.3957 7.6643 18.7756 8.03533C18.9328 8.18884 19.0725 8.35928 19.1922 8.54352C19.4815 8.98881 19.6001 9.56736 19.5299 10.5408C19.4587 11.5276 19.205 12.8031 18.8479 14.5885C18.5988 15.8341 18.4217 16.7148 18.2106 17.3859C18.0039 18.0426 17.7844 18.43 17.4901 18.7169C17.3679 18.8359 17.2358 18.9442 17.095 19.0407C16.756 19.2731 16.3331 19.4124 15.6486 19.4861C14.9491 19.5616 14.0509 19.5625 12.7805 19.5625H11.2195C9.94911 19.5625 9.0509 19.5616 8.35142 19.4861C7.66694 19.4124 7.24407 19.2731 6.90502 19.0407C6.76431 18.9442 6.63214 18.8359 6.50998 18.7169C6.2156 18.43 5.99605 18.0426 5.78947 17.3859C5.57837 16.7148 5.40131 15.8342 5.15216 14.5885C4.79508 12.8031 4.54132 11.5276 4.47014 10.5408C4.39993 9.56736 4.51847 8.98881 4.8078 8.54352C4.92751 8.35928 5.06723 8.18884 5.22441 8.03533Z" fill="white"/>
</svg>
