<svg width="24" height="24" viewBox="0 0 24 24" fill="none" xmlns="http://www.w3.org/2000/svg">
<path d="M18.9637 9.98356C18.457 9.98356 17.9737 10.0819 17.5268 10.2531L15.7228 6.68562H17.1315V5.95274H14.5314L15.2725 7.41918H8.92278L8.5529 6.68631H9.8014V5.95343H7.36146L8.18578 7.58624C8.18165 7.59243 8.17546 7.59724 8.17203 7.60343L6.61759 10.3087C6.13153 10.1004 5.59734 9.98493 5.03565 9.98493C2.81228 9.98493 1.00415 11.7937 1.00415 14.0171C1.00415 16.2405 2.81296 18.0486 5.03565 18.0486C7.13459 18.0486 8.86296 16.4351 9.04859 14.3836H12.0488C12.1795 14.3836 12.2998 14.3141 12.3658 14.2007L15.7503 8.36724L16.8682 10.5776C15.7091 11.2864 14.9308 12.5603 14.9308 14.0164C14.9308 16.2398 16.7397 18.0486 18.9623 18.0486C21.185 18.0486 22.9938 16.2398 22.9938 14.0164C22.9938 11.7931 21.185 9.98424 18.9623 9.98424L18.9637 9.98356ZM8.57903 8.36449L11.2472 13.6493H9.04859C8.93515 12.4015 8.25246 11.3166 7.26178 10.6573L8.57834 8.36449H8.57903ZM8.31296 13.6493H5.54303L6.89603 11.2939C7.66809 11.824 8.20365 12.6724 8.31296 13.6493ZM5.03634 17.3144C3.21721 17.3144 1.73771 15.8349 1.73771 14.0157C1.73771 12.1966 3.21721 10.7164 5.03634 10.7164C5.46465 10.7164 5.87303 10.801 6.2484 10.9502L4.59221 13.8329C4.5269 13.9463 4.52759 14.0859 4.5929 14.1993C4.65821 14.3127 4.77921 14.3822 4.90984 14.3822H8.31296C8.1294 16.0287 6.73103 17.3144 5.03634 17.3144ZM11.9615 13.4369L9.29265 8.15137H15.0292L11.9615 13.4369ZM18.9637 17.3151C17.1446 17.3151 15.6651 15.8349 15.6651 14.0157C15.6651 12.8456 16.279 11.8185 17.201 11.2327L18.7527 14.3024L19.4072 13.9717L17.8596 10.9117C18.2054 10.7879 18.576 10.7171 18.9637 10.7171C20.7828 10.7171 22.2623 12.1973 22.2623 14.0164C22.2623 15.8356 20.7828 17.3151 18.9637 17.3151Z" fill="white"/>
</svg>
