<svg width="22" height="22" viewBox="0 0 22 22" fill="none" xmlns="http://www.w3.org/2000/svg">
<path d="M16.9229 16.28C17.5304 16.28 18.0229 15.7875 18.0229 15.18V2.64C18.0229 2.03249 17.5304 1.54 16.9229 1.54H5.05983C4.45232 1.54 3.95983 2.03249 3.95983 2.64V15.18C3.95983 15.7875 4.45232 16.28 5.05983 16.28H16.9229ZM16.9229 17.16H5.05983C3.9663 17.16 3.07983 16.2735 3.07983 15.18V2.64C3.07983 1.54647 3.9663 0.660004 5.05983 0.660004H16.9229C18.0164 0.660004 18.9029 1.54647 18.9029 2.64V15.18C18.9029 16.2735 18.0164 17.16 16.9229 17.16Z" fill="white"/>
<path d="M7.26175 14.168C7.26175 14.8363 6.72011 15.378 6.05175 15.378C5.3834 15.378 4.84175 14.8363 4.84175 14.168C4.84175 13.4996 5.3834 12.958 6.05175 12.958C6.72011 12.958 7.26175 13.4996 7.26175 14.168ZM17.1398 14.168C17.1398 14.8363 16.5981 15.378 15.9298 15.378C15.2614 15.378 14.7198 14.8363 14.7198 14.168C14.7198 13.4996 15.2614 12.958 15.9298 12.958C16.5981 12.958 17.1398 13.4996 17.1398 14.168ZM8.79625 14.608H13.1963C13.4393 14.608 13.6363 14.411 13.6363 14.168C13.6363 13.925 13.4393 13.728 13.1963 13.728H8.79625C8.55324 13.728 8.35625 13.925 8.35625 14.168C8.35625 14.411 8.55324 14.608 8.79625 14.608ZM3.52008 12.0633H18.4631C18.7062 12.0633 18.9031 11.8663 18.9031 11.6233C18.9031 11.3803 18.7062 11.1833 18.4631 11.1833H3.52008C3.27707 11.1833 3.08008 11.3803 3.08008 11.6233C3.08008 11.8663 3.27707 12.0633 3.52008 12.0633ZM3.52008 4.62731H18.4631C18.7062 4.62731 18.9031 4.43032 18.9031 4.18731C18.9031 3.9443 18.7062 3.74731 18.4631 3.74731H3.52008C3.27707 3.74731 3.08008 3.9443 3.08008 4.18731C3.08008 4.43032 3.27707 4.62731 3.52008 4.62731ZM7.30795 18.031V19.377C7.30795 19.895 6.89349 20.3133 6.38416 20.3133H6.25173C5.7424 20.3133 5.32795 19.895 5.32795 19.377V18.0253C5.32795 17.7823 5.13095 17.5853 4.88795 17.5853C4.64494 17.5853 4.44795 17.7823 4.44795 18.0253V19.377C4.44795 20.3792 5.25455 21.1933 6.25173 21.1933H6.38416C7.38131 21.1933 8.18795 20.3792 8.18795 19.377V18.031C8.18795 17.788 7.99095 17.5911 7.74795 17.5911C7.50494 17.5911 7.30795 17.788 7.30795 18.031ZM16.7239 18.031V19.377C16.7239 19.895 16.3095 20.3133 15.8002 20.3133H15.6677C15.1584 20.3133 14.7439 19.895 14.7439 19.377V18.0253C14.7439 17.7823 14.547 17.5853 14.3039 17.5853C14.0609 17.5853 13.8639 17.7823 13.8639 18.0253V19.377C13.8639 20.3792 14.6706 21.1933 15.6677 21.1933H15.8002C16.7973 21.1933 17.6039 20.3792 17.6039 19.377V18.031C17.6039 17.788 17.407 17.5911 17.1639 17.5911C16.9209 17.5911 16.7239 17.788 16.7239 18.031Z" fill="white"/>
</svg>
