<svg width="24" height="24" viewBox="0 0 24 24" fill="none" xmlns="http://www.w3.org/2000/svg">
<path d="M14.0624 7.875C14.6063 7.875 15.138 7.71372 15.5902 7.41154C16.0425 7.10937 16.3949 6.67988 16.6031 6.17738C16.8112 5.67488 16.8657 5.12195 16.7596 4.5885C16.6535 4.05506 16.3915 3.56505 16.0069 3.18046C15.6223 2.79586 15.1323 2.53395 14.5989 2.42784C14.0655 2.32173 13.5125 2.37619 13.01 2.58433C12.5075 2.79247 12.078 3.14495 11.7759 3.59718C11.4737 4.04942 11.3124 4.5811 11.3124 5.125C11.3132 5.85409 11.6032 6.55308 12.1188 7.06862C12.6343 7.58417 13.3333 7.87417 14.0624 7.875ZM14.0624 3.75C14.3343 3.75 14.6002 3.83064 14.8263 3.98173C15.0524 4.13282 15.2287 4.34756 15.3327 4.59881C15.4368 4.85006 15.464 5.12653 15.411 5.39325C15.3579 5.65997 15.227 5.90498 15.0347 6.09727C14.8424 6.28957 14.5974 6.42053 14.3306 6.47358C14.0639 6.52664 13.7875 6.49941 13.5362 6.39534C13.285 6.29127 13.0702 6.11503 12.9191 5.88891C12.768 5.66279 12.6874 5.39695 12.6874 5.125C12.6878 4.76046 12.8328 4.41096 13.0906 4.15319C13.3484 3.89542 13.6979 3.75042 14.0624 3.75ZM19.5624 13.375C19.5624 13.5573 19.49 13.7322 19.361 13.8611C19.2321 13.9901 19.0572 14.0625 18.8749 14.0625C15.8275 14.0625 14.3109 12.4333 13.0922 11.1243C12.8834 10.9 12.6828 10.6853 12.4819 10.4844L11.2654 13.2823L14.462 15.5656C14.551 15.6292 14.6236 15.7131 14.6737 15.8104C14.7238 15.9077 14.7499 16.0156 14.7499 16.125V20.9375C14.7499 21.1198 14.6775 21.2947 14.5485 21.4236C14.4196 21.5526 14.2447 21.625 14.0624 21.625C13.8801 21.625 13.7052 21.5526 13.5763 21.4236C13.4473 21.2947 13.3749 21.1198 13.3749 20.9375V16.4788L10.7048 14.5716L7.81792 21.2116C7.74513 21.3787 7.60898 21.51 7.43939 21.5768C7.26981 21.6435 7.08066 21.6402 6.91352 21.5675C6.74639 21.4949 6.61494 21.3588 6.54806 21.1893C6.48119 21.0198 6.48436 20.8306 6.55689 20.6634L9.7834 13.2424L9.7855 13.2376L11.3061 9.74016C10.4948 9.54348 9.46768 9.7954 8.23686 10.4962C7.28714 11.0553 6.40582 11.7232 5.61073 12.4864C5.48171 12.6151 5.30689 12.6873 5.12468 12.6871C4.94247 12.687 4.76777 12.6145 4.63897 12.4856C4.51016 12.3567 4.43779 12.182 4.43774 11.9998C4.4377 11.8176 4.50999 11.6428 4.63873 11.5138C4.85433 11.2983 9.95523 6.26795 13.1538 9.22197C13.4821 9.5251 13.7955 9.8618 14.0986 10.1873C15.2955 11.4731 16.4261 12.6875 18.8749 12.6875C19.0572 12.6875 19.2321 12.7599 19.361 12.8889C19.49 13.0178 19.5624 13.1927 19.5624 13.375Z" fill="white"/>
</svg>
